<?xml version="1.0" standalone="no"?>
<!DOCTYPE svg PUBLIC "-//W3C//DTD SVG 20010904//EN"
 "http://www.w3.org/TR/2001/REC-SVG-20010904/DTD/svg10.dtd">
<svg version="1.0" xmlns="http://www.w3.org/2000/svg"
 width="512.000000pt" height="512.000000pt" viewBox="0 0 512.000000 512.000000"
 preserveAspectRatio="xMidYMid meet">
<metadata>
Created by potrace 1.11, written by Peter Selinger 2001-2013
</metadata>
<g transform="translate(0.000000,512.000000) scale(0.100000,-0.100000)"
fill="#000000" stroke="none">
<path d="M2475 5046 c-130 -35 -216 -152 -249 -341 -15 -83 -15 -349 0 -470
11 -85 11 -130 -1 -129 -19 3 -200 17 -222 17 -29 1 -33 23 -34 167 -2 243 51
368 233 549 50 50 88 94 85 98 -4 3 -17 -2 -30 -13 -12 -11 -48 -37 -80 -58
-85 -57 -182 -166 -221 -250 -55 -115 -74 -212 -75 -380 l-1 -98 -57 6 c-32 3
-87 9 -123 12 -36 3 -92 9 -126 13 -66 8 -191 6 -248 -3 -20 -3 -53 -9 -73
-12 -21 -3 -56 -9 -78 -14 -22 -5 -61 -12 -87 -15 -138 -19 -133 -23 17 -18
274 10 331 7 496 -25 160 -32 190 -37 299 -47 36 -3 81 -8 100 -10 132 -16
257 -24 468 -30 141 -4 182 -2 182 8 0 7 3 8 8 2 4 -5 23 -10 42 -11 38 -1
104 -10 178 -23 26 -5 92 -15 147 -21 90 -11 104 -15 147 -48 70 -53 69 -62
-5 -63 -339 -7 -898 10 -917 28 -2 2 2 14 9 26 10 17 7 15 -14 -6 -14 -15 -29
-26 -33 -23 -4 2 -43 7 -87 11 -44 3 -91 8 -105 10 -14 2 -52 6 -85 10 -86 10
-125 15 -154 20 -213 36 -256 39 -141 10 90 -23 330 -66 450 -81 30 -4 64 -8
75 -10 11 -1 24 -3 29 -3 4 -1 0 -13 -10 -28 -16 -26 -162 -212 -174 -223 -37
-34 -289 -382 -349 -482 -67 -111 -70 -101 71 -209 68 -52 150 -115 182 -139
93 -70 204 -179 309 -303 110 -129 168 -178 352 -299 75 -49 159 -115 198
-154 80 -81 88 -73 -107 -108 -123 -23 -160 -27 -326 -41 -36 -4 -84 -8 -107
-10 -23 -3 -68 -7 -99 -11 -60 -5 -246 -52 -419 -104 -72 -22 -106 -28 -121
-21 -39 17 -177 189 -362 450 -56 79 -102 142 -102 138 0 -6 74 -136 138 -241
23 -37 42 -70 42 -72 0 -6 112 -167 155 -224 56 -73 120 -130 145 -130 22 0
191 35 355 74 121 29 225 43 455 61 87 7 180 16 205 21 11 3 36 7 55 10 60 10
290 62 410 94 198 53 431 107 532 124 159 27 162 29 174 142 3 38 8 83 9 99 3
31 12 216 20 430 6 140 15 289 20 325 13 88 25 197 40 385 3 33 8 71 10 85 2
14 7 45 10 70 10 73 33 153 74 260 22 55 42 114 45 132 6 31 5 31 -9 -6 -8
-21 -36 -81 -61 -133 -63 -130 -82 -187 -109 -333 -3 -14 -7 -36 -10 -50 -2
-14 -7 -41 -10 -60 -4 -19 -10 -53 -15 -75 -5 -22 -11 -57 -14 -77 -3 -21 -10
-57 -15 -80 -33 -147 -46 -270 -56 -533 -5 -143 -14 -300 -20 -345 -11 -86
-19 -122 -29 -125 -6 -2 -65 -13 -131 -25 -66 -13 -208 -44 -315 -71 -107 -26
-196 -46 -198 -44 -2 2 5 8 16 14 22 12 128 137 183 216 54 78 121 189 194
325 96 177 129 230 217 356 98 139 130 215 131 305 0 90 -26 141 -116 236 -42
43 -86 92 -99 108 -12 17 -27 35 -33 41 -5 6 -25 29 -43 52 -39 47 -51 61
-110 127 -23 26 -41 49 -39 51 1 2 21 6 42 8 224 29 457 95 540 154 l20 14
-20 -5 c-11 -4 -72 -24 -135 -46 -120 -41 -266 -69 -410 -78 l-86 -5 -44 37
c-25 20 -48 40 -52 43 -4 4 31 8 77 9 65 1 112 10 201 37 64 20 126 36 138 36
12 0 30 6 41 13 47 32 180 78 239 84 79 7 111 0 142 -34 13 -14 24 -21 24 -15
0 20 -61 71 -98 82 -70 19 -173 5 -295 -40 -29 -10 -79 -22 -112 -25 -75 -8
-98 -12 -177 -28 -35 -8 -77 -13 -93 -12 -17 2 -73 5 -125 9 -53 3 -120 10
-150 15 -30 6 -77 13 -105 16 -161 20 -151 14 -159 92 -18 178 -74 442 -116
557 -11 29 -37 72 -57 96 -38 43 -120 90 -160 90 -33 0 -28 24 10 56 40 34 98
60 155 69 23 4 42 10 42 14 0 11 -90 9 -135 -3z m-52 -180 c118 -76 143 -121
167 -301 20 -147 22 -160 31 -210 17 -88 23 -232 10 -239 -6 -4 -73 -10 -149
-13 l-139 -6 -11 59 c-40 208 -55 425 -39 549 11 82 51 195 69 195 5 0 32 -15
61 -34z m211 -854 c3 -5 -16 -9 -42 -9 l-47 -1 40 8 c22 4 41 8 42 9 1 0 4 -3
7 -7z m-289 -197 c39 -3 84 -8 100 -10 158 -23 779 -22 816 1 13 8 59 -44 199
-221 66 -82 146 -178 179 -213 77 -82 98 -145 79 -236 -16 -72 -45 -124 -161
-284 -31 -44 -97 -154 -146 -244 -181 -336 -337 -551 -449 -622 -23 -14 -51
-26 -63 -26 -11 0 -41 21 -68 48 -77 77 -119 109 -266 207 -157 105 -208 150
-317 280 -131 156 -234 248 -438 393 -173 123 -158 106 -135 150 11 20 34 61
52 90 18 29 33 54 33 57 0 12 178 270 280 405 64 85 130 174 146 198 25 37 33
42 59 38 17 -3 62 -8 100 -11z"/>
<path d="M2709 3590 l-115 -69 2 -90 2 -90 -57 -3 -56 -3 -2 -97 -1 -97 56 -3
57 -3 1 -270 c0 -148 4 -288 8 -310 22 -118 108 -175 256 -169 41 2 95 9 120
17 l45 13 -2 70 c-4 104 -7 120 -29 116 -67 -12 -87 -14 -108 -8 -14 3 -28 16
-32 29 -4 12 -8 133 -9 270 l-1 247 83 0 83 0 1 65 c0 36 1 80 2 98 l1 32 -75
3 c-41 1 -79 4 -85 6 -7 3 -10 57 -10 160 1 99 -2 156 -9 156 -5 -1 -62 -32
-126 -70z"/>
<path d="M2681 5051 c-6 -4 11 -13 37 -21 99 -29 210 -112 287 -214 113 -152
179 -372 190 -636 2 -47 4 -88 4 -91 1 -4 22 -6 49 -5 l47 1 -2 80 c-10 345
-200 733 -413 840 -76 38 -174 61 -199 46z"/>
<path d="M893 4075 c31 -67 56 -190 72 -360 3 -33 10 -82 15 -110 5 -27 12
-72 15 -100 3 -27 10 -79 15 -115 9 -67 16 -119 25 -192 3 -24 7 -59 10 -78 2
-19 7 -60 10 -90 2 -30 9 -98 15 -152 5 -53 12 -120 15 -150 6 -55 10 -100 21
-203 4 -33 12 -98 19 -145 l12 -85 3 60 c1 33 4 83 6 110 9 124 11 436 3 490
-4 33 -11 92 -14 130 -3 39 -8 77 -10 85 -2 8 -7 38 -10 65 -3 28 -15 111 -26
185 -11 74 -23 151 -25 170 -26 179 -109 423 -169 495 -15 19 -15 18 -2 -10z"/>
<path d="M1347 3973 c3 -52 53 -243 89 -345 15 -43 51 -221 60 -301 7 -54 10
-64 20 -55 7 8 7 191 -1 253 -3 28 -24 102 -46 165 -102 291 -116 331 -121
336 -3 3 -4 -21 -1 -53z"/>
<path d="M1308 3955 c-7 -7 -84 -13 -190 -16 -43 -1 -78 -6 -78 -10 0 -5 6 -9
13 -10 6 0 21 -3 32 -5 41 -11 177 -13 201 -3 25 9 54 32 54 43 0 8 -25 8 -32
1z"/>
<path d="M1511 3244 c0 -11 3 -14 6 -6 3 7 2 16 -1 19 -3 4 -6 -2 -5 -13z"/>
<path d="M1549 2258 c-20 -67 -28 -280 -14 -408 4 -41 8 -81 8 -87 0 -7 3 -13
7 -13 4 0 8 23 9 51 1 29 4 55 6 60 8 12 7 205 -1 284 -4 39 -7 80 -7 93 -1
18 -5 29 -8 20z"/>
<path d="M2769 1545 c-1 0 -2 -231 -3 -513 l-1 -513 90 3 90 3 -1 47 c-1 49 8
53 34 16 7 -10 33 -29 57 -44 155 -90 346 -15 417 165 18 47 22 76 22 186 0
112 -3 138 -22 186 -49 123 -151 194 -277 193 -80 -1 -125 -17 -178 -64 l-37
-32 0 181 c0 138 -3 181 -12 182 -9 0 -163 4 -179 4z m431 -443 c41 -31 68
-80 76 -138 10 -80 0 -177 -23 -221 -50 -96 -165 -111 -240 -31 -77 83 -73
302 8 377 47 43 129 49 179 13z"/>
<path d="M283 1463 l-93 -55 0 -74 0 -74 -45 0 -46 0 3 -77 3 -78 40 0 c48 -1
43 24 47 -270 4 -244 11 -271 82 -307 49 -25 172 -30 224 -9 35 15 38 27 26
116 -7 46 -7 47 -38 40 -95 -22 -99 -15 -101 220 -1 129 2 198 9 203 6 3 36 7
66 7 l55 0 2 77 1 77 -66 3 -67 3 0 122 c0 67 -2 123 -5 126 -3 2 -47 -20 -97
-50z"/>
<path d="M1814 1259 c-28 -11 -69 -35 -92 -55 l-42 -36 0 46 0 46 -90 0 -90 0
0 -370 0 -370 98 0 97 0 1 235 c1 259 10 307 62 344 37 25 101 34 132 18 49
-25 53 -51 54 -332 l2 -260 96 -3 97 -3 3 248 c3 227 5 251 23 282 30 51 68
75 120 75 92 1 101 -33 100 -371 l0 -233 98 0 98 0 -1 280 c-1 312 -7 353 -62
408 -41 43 -89 63 -158 67 -78 4 -139 -17 -197 -69 l-48 -44 -25 34 c-53 72
-176 100 -276 63z"/>
<path d="M3803 1265 c-29 -6 -70 -24 -92 -38 -42 -28 -89 -96 -93 -137 -3 -22
2 -25 62 -37 95 -18 103 -17 118 16 23 52 95 73 174 51 44 -13 68 -43 68 -86
0 -38 -10 -42 -160 -73 -124 -25 -200 -54 -233 -89 -64 -67 -78 -179 -33 -257
43 -72 101 -104 199 -110 71 -4 135 16 198 60 l46 33 12 -39 12 -39 95 0 c88
0 96 2 89 18 -28 72 -34 137 -35 352 -1 209 -3 231 -22 269 -23 47 -74 86
-132 102 -58 16 -214 18 -273 4z m239 -406 c8 -24 -10 -130 -27 -155 -22 -35
-89 -63 -139 -59 -49 3 -96 49 -96 95 0 52 35 78 140 104 113 29 117 29 122
15z"/>
<path d="M4575 1265 c-68 -16 -108 -38 -143 -81 -59 -72 -64 -180 -12 -253 37
-51 104 -82 270 -125 139 -35 161 -48 153 -90 -10 -48 -69 -75 -152 -70 -57 4
-101 31 -126 77 -18 35 -23 37 -55 32 -19 -3 -53 -8 -75 -11 -71 -9 -77 -13
-70 -42 13 -51 79 -128 137 -158 66 -34 237 -50 325 -30 160 36 253 191 194
322 -34 75 -101 111 -300 159 -132 33 -168 55 -152 96 11 31 62 47 138 43 57
-3 93 -22 113 -59 15 -28 20 -29 90 -14 63 13 82 17 94 18 14 2 -4 52 -32 92
-27 39 -92 80 -147 94 -49 13 -196 13 -250 0z"/>
<path d="M650 987 c0 -300 7 -348 57 -408 91 -108 294 -96 404 23 l26 29 -1
-53 -1 -53 90 -3 90 -3 0 368 0 368 -98 3 -97 3 -1 -213 c-1 -305 -3 -317 -63
-363 -68 -52 -170 -35 -198 33 -7 17 -12 120 -13 282 l-3 255 -96 3 -96 3 0
-274z"/>
<path d="M455 253 l0 -128 70 -3 c96 -4 114 2 131 45 15 34 14 38 -6 65 -16
22 -19 33 -11 41 18 18 13 65 -9 87 -17 17 -33 20 -98 20 l-77 0 0 -127z m145
66 c13 -21 0 -37 -33 -41 -54 -6 -64 0 -59 31 4 27 7 29 44 26 23 -2 44 -9 48
-16z m8 -122 c2 -15 0 -27 -5 -28 -68 -8 -93 -5 -94 10 -1 9 -2 23 -3 31 -1
19 30 28 69 20 23 -4 31 -12 33 -33z"/>
<path d="M908 368 c-3 -11 -3 -179 1 -230 1 -12 9 -18 24 -18 22 0 22 2 21
122 -1 68 -2 126 -3 131 -2 12 -39 8 -43 -5z"/>
<path d="M1007 373 c-9 -20 0 -38 21 -41 18 -3 22 1 22 22 0 19 -5 26 -19 26
-11 0 -22 -3 -24 -7z"/>
<path d="M1200 250 l0 -130 25 0 c25 0 25 0 23 85 -2 47 0 85 3 85 3 0 14 -37
25 -82 18 -75 22 -83 45 -86 24 -3 26 2 42 70 26 106 34 111 33 16 -1 -82 -1
-83 23 -83 l25 0 -1 110 c-1 61 -2 118 -2 128 -1 15 -8 18 -38 15 l-37 -3 -21
-79 c-12 -44 -24 -76 -27 -70 -3 5 -14 42 -24 82 l-18 72 -38 0 -38 0 0 -130z"/>
<path d="M1830 333 c0 -37 -3 -44 -12 -35 -20 20 -67 14 -93 -13 -47 -46 -25
-152 34 -168 11 -2 31 1 45 9 14 7 26 9 26 3 0 -5 10 -9 23 -9 24 0 24 1 24
130 l0 130 -23 0 c-22 0 -24 -4 -24 -47z m0 -115 c0 -26 -16 -54 -34 -61 -44
-17 -64 79 -23 108 21 15 23 14 40 -6 9 -12 17 -30 17 -41z"/>
<path d="M2120 250 l0 -130 25 0 c23 0 24 3 27 66 3 70 18 94 52 81 13 -5 16
-21 16 -77 0 -68 1 -71 23 -68 20 3 22 8 23 76 1 47 -4 79 -13 92 -15 22 -53
26 -84 10 -17 -10 -19 -7 -19 35 0 41 -2 45 -25 45 l-25 0 0 -130z"/>
<path d="M2534 253 c1 -125 2 -128 24 -131 22 -3 22 -1 22 94 0 100 4 116 14
53 3 -20 8 -42 10 -50 3 -8 10 -33 16 -56 9 -35 15 -43 34 -43 19 0 25 8 34
43 7 23 17 62 24 87 l13 45 3 -87 c3 -83 4 -88 25 -88 22 0 22 2 22 128 l0
127 -37 3 c-36 3 -37 2 -48 -40 -6 -24 -17 -63 -24 -87 l-13 -45 -12 50 c-33
132 -28 124 -70 124 l-37 0 0 -127z"/>
<path d="M3379 368 c-1 -7 -2 -66 -3 -131 l-1 -118 25 3 c23 3 25 7 26 63 0
71 7 85 40 85 26 0 27 -2 26 -97 0 -51 1 -53 26 -53 l27 0 -2 76 c-2 56 -7 81
-19 95 -18 20 -55 25 -83 10 -15 -9 -17 -5 -17 32 1 36 -2 42 -21 45 -14 2
-23 -2 -24 -10z"/>
<path d="M3788 283 c-4 -143 -1 -163 26 -163 21 0 22 3 21 90 0 49 2 86 5 82
4 -4 15 -44 25 -90 18 -79 20 -83 44 -80 23 3 27 11 47 88 23 87 26 83 26 -27
0 -60 1 -63 24 -63 l24 0 0 130 0 130 -38 0 -39 0 -13 -57 c-25 -115 -30 -118
-54 -28 l-21 80 -37 3 -37 3 -3 -98z"/>
<path d="M4639 363 c-2 -25 -2 -20 5 -102 3 -41 7 -76 9 -77 1 -2 8 0 15 5 7
4 15 44 18 99 l7 92 -27 0 c-18 0 -26 -6 -27 -17z"/>
<path d="M4318 356 c-10 -7 -18 -19 -18 -25 0 -7 -7 -20 -16 -29 -15 -14 -15
-17 0 -27 12 -9 16 -29 16 -73 0 -50 4 -63 20 -75 29 -20 69 -11 63 14 -3 10
-12 19 -19 19 -10 0 -14 15 -14 55 0 42 3 55 15 55 8 0 15 9 15 20 0 11 -7 20
-15 20 -10 0 -15 10 -15 30 0 33 -6 36 -32 16z"/>
<path d="M725 286 c-37 -37 -37 -107 0 -145 31 -32 92 -32 117 0 10 11 15 25
12 30 -8 14 -41 11 -47 -5 -9 -24 -57 -7 -57 20 0 11 14 14 59 14 60 0 60 0
55 28 -13 75 -89 108 -139 58z m83 -28 c20 -20 14 -28 -23 -28 -22 0 -35 5
-35 13 0 28 36 37 58 15z"/>
<path d="M1008 303 c-3 -5 -4 -46 -4 -93 1 -80 2 -85 23 -88 19 -3 22 2 25 40
2 24 1 67 0 96 -3 43 -7 52 -22 52 -11 0 -20 -3 -22 -7z"/>
<path d="M1497 303 c-10 -17 -1 -151 11 -165 19 -23 47 -28 78 -12 31 17 37
17 29 4 -4 -6 5 -10 19 -10 l26 0 0 95 c0 95 0 95 -25 95 -24 0 -25 -3 -25
-62 0 -71 -19 -104 -51 -87 -16 8 -19 21 -19 79 0 63 -2 70 -19 70 -11 0 -22
-3 -24 -7z"/>
<path d="M1934 289 c-16 -17 -16 -22 -4 -29 19 -12 27 -12 35 0 10 15 52 12
59 -5 4 -11 -4 -16 -32 -21 -20 -3 -46 -12 -56 -19 -56 -42 5 -122 68 -90 14
8 26 10 26 4 0 -5 11 -9 23 -9 23 0 24 2 21 82 -3 95 -13 108 -79 108 -30 0
-47 -6 -61 -21z m91 -101 c-7 -32 -46 -51 -59 -29 -11 17 6 40 32 44 15 2 28
5 29 6 1 0 0 -9 -2 -21z"/>
<path d="M2829 283 c-4 -75 1 -136 12 -149 13 -16 62 -19 90 -4 13 7 19 7 19
0 0 -5 9 -10 20 -10 19 0 20 7 20 96 0 93 -1 95 -22 92 -20 -3 -23 -9 -25 -53
-1 -27 -2 -58 -2 -67 -1 -22 -33 -39 -51 -28 -10 6 -15 30 -15 77 -1 62 -3 68
-23 71 -18 3 -22 -2 -23 -25z"/>
<path d="M3040 215 c0 -95 0 -95 25 -95 24 0 25 2 25 64 0 66 15 94 44 83 14
-6 29 26 18 37 -10 10 -48 6 -60 -6 -9 -9 -12 -9 -12 0 0 7 -9 12 -20 12 -19
0 -20 -7 -20 -95z"/>
<path d="M3190 288 l-21 -23 22 -10 c16 -7 24 -6 27 3 2 6 17 12 33 12 40 0
38 -27 -3 -35 -53 -11 -78 -32 -78 -65 0 -42 42 -64 88 -45 17 8 32 10 32 5 0
-6 10 -10 23 -10 21 0 22 2 17 78 -3 45 -11 86 -19 95 -21 26 -95 23 -121 -5z
m90 -97 c0 -24 -25 -45 -45 -37 -21 8 -19 43 3 49 34 9 42 7 42 -12z"/>
<path d="M4080 242 c0 -37 3 -77 6 -89 9 -35 70 -47 102 -21 8 7 12 7 12 -1 0
-6 11 -11 24 -11 23 0 23 1 22 93 -1 90 -1 92 -25 92 -23 0 -24 -3 -23 -59 0
-69 -4 -82 -25 -90 -30 -12 -43 14 -43 83 0 64 -1 67 -25 69 -24 2 -25 0 -25
-66z"/>
<path d="M4417 303 c-9 -18 0 -152 11 -166 19 -22 47 -26 76 -11 14 7 26 9 26
3 0 -5 11 -9 25 -9 25 0 25 0 25 96 0 93 -1 95 -22 92 -21 -3 -23 -9 -26 -70
-2 -52 -7 -70 -20 -77 -29 -15 -47 4 -49 51 0 24 -2 55 -2 71 -1 20 -6 27 -20
27 -11 0 -22 -3 -24 -7z"/>
<path d="M2339 168 c-7 -24 -4 -40 9 -47 14 -8 15 -12 5 -22 -7 -7 -13 -20
-13 -29 1 -10 8 -6 25 13 15 17 23 36 21 50 -3 12 -5 25 -5 30 -1 6 -40 11
-42 5z"/>
<path d="M3590 146 c0 -15 7 -26 17 -28 16 -3 16 -4 0 -20 -21 -20 -21 -28 -2
-28 19 0 35 31 35 69 0 26 -4 31 -25 31 -20 0 -25 -5 -25 -24z"/>
<path d="M4640 144 c0 -21 4 -25 23 -22 14 2 23 11 25 26 3 18 -1 22 -22 22
-21 0 -26 -5 -26 -26z"/>
</g>
</svg>
